<?xml version="1.0" encoding="UTF-8"?>
<!DOCTYPE svg PUBLIC "-//W3C//DTD SVG 1.1//EN" "http://www.w3.org/Graphics/SVG/1.1/DTD/svg11.dtd">
<!-- Creator: CorelDRAW X8 -->
<svg xmlns="http://www.w3.org/2000/svg" xml:space="preserve" width="210mm" height="297mm" version="1.1" style="shape-rendering:geometricPrecision; text-rendering:geometricPrecision; image-rendering:optimizeQuality; fill-rule:evenodd; clip-rule:evenodd"
viewBox="0 0 21000 29700"
 xmlns:xlink="http://www.w3.org/1999/xlink"
 enable-background="new 0 0 100 100">
 <defs>
  <style type="text/css">
   <![CDATA[
    .fil0 {fill:#231F20}
    .fil1 {fill:red}
   ]]>
  </style>
 </defs>
 <g id="Слой_x0020_1">
  <metadata id="CorelCorpID_0Corel-Layer"/>
  <g id="_640572336">
   <path class="fil0" d="M9523 14674c4,0 9,0 13,-1 28,-7 46,-36 39,-64 -11,-43 -16,-87 -16,-131 0,-261 202,-473 451,-473 257,0 445,179 448,426 0,29 24,52 53,52 29,0 52,-23 53,-52 2,-247 191,-426 448,-426 248,0 450,212 450,473 0,43 -5,87 -15,129 -6,28 11,57 40,64 28,6 57,-11 63,-40 12,-50 18,-102 18,-153 0,-319 -249,-579 -556,-579 -230,0 -415,116 -501,296 -87,-180 -272,-296 -501,-296 -307,0 -557,260 -557,579 0,52 7,105 19,156 6,24 27,40 51,40z"/>
   <path class="fil0" d="M11196 14965l-685 682 -681 -678c-21,-20 -54,-20 -75,1 -20,20 -20,54 0,74l718 715c11,10 24,16 38,16 13,0 27,-6 37,-16l723 -719c21,-21 21,-54 0,-75 -21,-21 -54,-21 -75,0z"/>
   <path class="fil1" d="M11704 14758l0 -1 0 0c-13,-10 -28,-16 -45,-16 -17,0 -33,6 -45,16l-771 0c-13,-10 -28,-16 -45,-16 -40,0 -72,32 -72,72 0,1 0,3 0,4l-206 275 -323 -643c2,-6 3,-12 3,-19 0,-39 -32,-72 -72,-72 -39,0 -72,33 -72,72 0,2 1,4 1,6l-242 321 -455 0c-12,-10 -28,-16 -45,-16 -40,0 -72,32 -72,72 0,40 32,72 72,72 20,0 38,-9 51,-22l475 0c17,0 33,-8 43,-21l235 -313 324 645c-2,7 -4,14 -4,22 0,39 32,71 72,71 39,0 72,-32 72,-71 0,-4 -1,-7 -1,-11l227 -302c15,-2 29,-9 40,-20l759 0c13,13 31,22 51,22 39,0 71,-33 71,-72 0,-23 0,-42 -26,-55z"/>
  </g>
 </g>
</svg>
