<?xml version="1.0" encoding="utf-8"?>
<!-- Generator: Adobe Illustrator 19.0.1, SVG Export Plug-In . SVG Version: 6.00 Build 0)  -->
<svg version="1.1" id="Layer_1" xmlns="http://www.w3.org/2000/svg" xmlns:xlink="http://www.w3.org/1999/xlink" x="0px" y="0px"
	 viewBox="-164 42.3 512 512" style="enable-background:new -164 42.3 512 512;" xml:space="preserve">
<style type="text/css">
	.st0{fill:#FFFFFF;}
</style>
<g>
	<path class="st0" d="M-39.4,365.8l49.7,49.7l198.9-198.9l-49.7-49.7L284.1,42.3c0,0,59.6,54.8,63.6,98.2
		c5.4,58.2-56.2,163.9-152.9,260.6C98.1,497.7-7.6,559.3-65.8,554c-43.5-4-98.2-63.6-98.2-63.6L-39.4,365.8z"/>
	<path class="st0" d="M-116.6,269.7h-33.8c0-117.9,95.9-213.8,213.8-213.8v33.8C-35.8,89.7-116.6,170.4-116.6,269.7z"/>
	<path class="st0" d="M-37.8,269.7h-33.8c0-74.5,60.6-135,135-135v33.8C7.6,168.4-37.8,213.9-37.8,269.7z"/>
</g>
</svg>
