<?xml version="1.0" encoding="utf-8"?>
<!-- Generator: Adobe Illustrator 19.0.1, SVG Export Plug-In . SVG Version: 6.00 Build 0)  -->
<svg version="1.1" id="Capa_1" xmlns="http://www.w3.org/2000/svg" xmlns:xlink="http://www.w3.org/1999/xlink" x="0px" y="0px"
	 viewBox="-164 42.3 512 512" style="enable-background:new -164 42.3 512 512;" xml:space="preserve">
<style type="text/css">
	.st0{fill:#F9F9F9;}
</style>
<g>
	<path class="st0" d="M220,42.4l-66.4-0.1c-74.6,0-122.8,49.5-122.8,126v58.1H-36c-5.8,0-10.4,4.7-10.4,10.4V321
		c0,5.8,4.7,10.4,10.4,10.4h66.8v212.4c0,5.8,4.7,10.4,10.4,10.4h87.1c5.8,0,10.4-4.7,10.4-10.4V331.4h78.1
		c5.8,0,10.4-4.7,10.4-10.4l0-84.2c0-2.8-1.1-5.4-3.1-7.4c-2-2-4.6-3.1-7.4-3.1h-78.1v-49.2c0-23.7,5.6-35.7,36.5-35.7l44.7,0
		c5.8,0,10.4-4.7,10.4-10.4V52.8C230.4,47.1,225.7,42.4,220,42.4z"/>
</g>
</svg>
