<?xml version="1.0" encoding="utf-8"?>
<!-- Generator: Adobe Illustrator 19.0.1, SVG Export Plug-In . SVG Version: 6.00 Build 0)  -->
<svg version="1.1" id="Layer_1" xmlns="http://www.w3.org/2000/svg" xmlns:xlink="http://www.w3.org/1999/xlink" x="0px" y="0px"
	 viewBox="-164 42.3 512 512" style="enable-background:new -164 42.3 512 512;" xml:space="preserve">
<style type="text/css">
	.st0{fill:#FFFFFF;}
</style>
<g>
	<path class="st0" d="M-84.4,148.9c5.7,4.3,13.8,3.2,18.1-2.4c38-49.9,95.8-78.4,158.3-78.4s120.3,28.6,158.3,78.4
		c2.5,3.3,6.4,5.1,10.3,5.1c2.7,0,5.5-0.9,7.8-2.6c5.7-4.3,6.7-12.4,2.4-18.1C227.9,74.6,162.7,42.3,92,42.3S-43.9,74.6-86.8,130.9
		C-91.2,136.5-90.1,144.6-84.4,148.9z"/>
	<path class="st0" d="M229.1,217.7c0,22.2,18.1,40.3,40.3,40.3s40.3-18.1,40.3-40.3s-18.1-40.3-40.3-40.3S229.1,195.5,229.1,217.7
		L229.1,217.7z"/>
	<path class="st0" d="M310.6,271.4c-0.1,0-10.2-3.1-10.2-3.1c-3.7-1.1-7.7-0.4-10.7,1.9l-20.2,15.2l-20.2-15.2
		c-3.1-2.3-7.1-3-10.7-1.9c0,0-10.2,3.1-10.2,3.1c-16.3,5.4-27.3,20.7-27.3,37.9v60.9c0,2.3,0.7,4.6,2,6.6l20.4,31.1v81.6
		c0,6.6,5.4,12,12,12h68.2c6.6,0,12-5.4,12-12v-81.6l20.4-31.1c1.3-2,2-4.3,2-6.6v-60.9C337.9,292.1,327,276.9,310.6,271.4
		L310.6,271.4z"/>
	<path class="st0" d="M-85.4,258c22.2,0,40.3-18.1,40.3-40.3s-18.1-40.3-40.3-40.3s-40.3,18.1-40.3,40.3S-107.6,258-85.4,258z"/>
	<path class="st0" d="M-44.2,271.4c-0.1,0-10.2-3.1-10.2-3.1c-3.7-1.1-7.7-0.4-10.7,1.9l-20.2,15.2l-20.2-15.2
		c-3.1-2.3-7.1-3-10.7-1.9c0,0-10.2,3.1-10.2,3.1c-16.3,5.4-27.3,20.7-27.3,37.9v60.9c0,2.3,0.7,4.6,2,6.6l20.4,31.1v81.6
		c0,6.6,5.4,12,12,12h68.2c6.6,0,12-5.4,12-12v-81.6l20.4-31.1c1.3-2,2-4.3,2-6.6v-60.9C-16.9,292.1-27.8,276.9-44.2,271.4z"/>
	<path class="st0" d="M144,161c0-28.7-23.3-52-52-52s-52,23.3-52,52c0,28.7,23.3,52,52,52S144,189.6,144,161z"/>
	<path class="st0" d="M149.1,238.1L149.1,238.1l-14.9-4.6c-2.3-0.7-4.8,0.5-5.7,2.8l-31.2,85.6c-1.8,4.9-8.8,4.9-10.6,0l-31.2-85.6
		c-0.7-1.9-2.4-3-4.3-3c-0.4,0-16.2,4.7-16.2,4.7C16.1,244.4,3.4,262,3.4,281.8v90.5c0,0.9,0.3,1.8,0.8,2.5l32.5,49.5v125.3
		c0,2.5,2.1,4.6,4.6,4.6h101.3c2.5,0,4.6-2.1,4.6-4.6V424.4l32.5-49.5c0.5-0.8,0.8-1.6,0.8-2.5v-90.8
		C180.6,261.8,167.9,244.3,149.1,238.1L149.1,238.1z"/>
	<path class="st0" d="M104.2,236.3c-1.3-1.4-3.2-2.1-5.1-2.1H84.9c-1.9,0-3.8,0.7-5.1,2.1c-2,2.2-2.3,5.3-0.9,7.8l7.6,11.5l-3.6,30
		l7,18.6c0.7,1.9,3.3,1.9,4,0l7-18.6l-3.6-30l7.6-11.5C106.5,241.6,106.2,238.5,104.2,236.3L104.2,236.3z"/>
</g>
</svg>
