<?xml version="1.0" encoding="utf-8"?>
<!-- Generator: Adobe Illustrator 19.0.1, SVG Export Plug-In . SVG Version: 6.00 Build 0)  -->
<svg version="1.1" id="Capa_1" xmlns="http://www.w3.org/2000/svg" xmlns:xlink="http://www.w3.org/1999/xlink" x="0px" y="0px"
	 viewBox="-164 42.3 512 512" style="enable-background:new -164 42.3 512 512;" xml:space="preserve">
<style type="text/css">
	.st0{fill:#F9F9F9;}
</style>
<g>
	<g>
		<path class="st0" d="M66.8,402.9C27.1,398.8-8.7,389-39.3,365c-3.8-3-7.7-5.9-11.2-9.2c-13.4-12.9-14.8-27.6-4.2-42.8
			c9.1-13,24.3-16.5,40.2-9c3.1,1.4,6,3.3,8.8,5.2c57.1,39.2,135.5,40.3,192.9,1.8c5.7-4.4,11.7-7.9,18.8-9.7
			c13.7-3.5,26.4,1.5,33.8,13.5c8.4,13.7,8.3,27-2.1,37.6c-15.9,16.3-34.9,28-56.1,36.3c-20,7.8-42,11.7-63.7,14.3
			c3.3,3.6,4.8,5.3,6.9,7.4c29.5,29.6,59.1,59.1,88.5,88.8c10,10.1,12.1,22.7,6.6,34.5c-6,12.9-19.5,21.3-32.7,20.4
			c-8.4-0.6-14.9-4.8-20.7-10.6c-22.2-22.4-44.9-44.4-66.7-67.2c-6.3-6.6-9.4-5.4-15,0.4c-22.4,23-45.1,45.7-68,68.3
			C6.4,555-5.9,556.8-17.8,551c-12.7-6.1-20.7-19.1-20.1-32.1c0.4-8.8,4.8-15.5,10.8-21.5c29.2-29.1,58.3-58.3,87.4-87.5
			C62.2,408,64,405.9,66.8,402.9z"/>
		<path class="st0" d="M91,301.4c-70.8-0.2-128.9-58.9-128.5-129.9C-37.1,99.9,21,42.1,92.5,42.3c71.7,0.2,129.2,58.8,128.8,131.3
			C221,244.3,162.5,301.7,91,301.4z M155.3,171.7c-0.1-35.2-28.2-63.2-63.3-63.3c-35.4,0-63.7,28.5-63.5,64
			c0.3,35.1,28.5,62.9,63.8,62.8C127.5,235.2,155.4,207,155.3,171.7z"/>
	</g>
</g>
</svg>
